# xmcd
#
# Track frame offsets: 
#        150
#        2935
#        6821
#        8402
#        12711
#        19025
#        21820
#        24781
#        29645
#        31592
#        33988
#        41483
#        62404
#        76007
#        92207
#        111289
#        130637
#        145014
#        159211
#        164572
#        177347
#        196105
#        223685
#        233287
#        238334
#        248539
#        258971
#        269283
#        272699
#        275881
#        281572
#        286167
#        295632
#        304691
#        315703
#        332915
#
# Disc length: 4654 seconds
#
# Revision: 0
# Processed by: cddbd v1.5.2PL0 Copyright (c) Steve Scherf et al.
# Submitted via: ExactAudioCopyFreeDBPlugin 1.0
#
DISCID=d9122c24
DTITLE=Leadbelly - Complete Recordings - Volume One
DYEAR=2016
DGENRE=Blues
TTITLE0=The Western Cowboy – [119-B-1]
TTITLE1=Honey Take A Whiff On Me – [119-B-2]
TTITLE2=Angola Blues – [119-B-4]
TTITLE3=Angola Blues – [119-B-5]
TTITLE4=Frankie and Albert – [119-B-6]
TTITLE5=Irene – [120-A-1]
TTITLE6=Take A Whiff On Me – [120-A-2]
TTITLE7=You Can’t lose Me Cholly – [120-A-3]
TTITLE8=Irene – [120-A-6]
TTITLE9=Irene – [120-A-7]
TTITLE10=Ella Speed – [120-B-5]
TTITLE11=Mister Tom Hughes Town - [121-A]
TTITLE12=I Got Up This Morning, Had To get Up So Soon – [122-A-2]
TTITLE13=Western Cowboy - [122-B]
TTITLE14=Blind Lemon Blues – [123-A]
TTITLE15=Matchbox Blues – [123-B]
TTITLE16=Midnight Special – [124-A-1]
TTITLE17=Irene – [124-A-2]
TTITLE18=Irene – [124-B-1]
TTITLE19=Governor O. K. Allen – [124-B-2]
TTITLE20=Frankie and Albert – [125-A]
TTITLE21=Ella Speed – [125-B]
TTITLE22=Julie Anne Johnson – [126-A-1]
TTITLE23=You Can’t Lose-a-Me Cholly – [126-A-2]
TTITLE24=Take A Whiff On Me – [126-A-3]
TTITLE25=I’m Sorry Mama – [126-B]
TTITLE26=Mister Tom Hughes’ Town – [236-B-3]
TTITLE27=Julie Anne Johnson – [239-A-3]
TTITLE28=Julie Anne Johnson – [240-A-4]
TTITLE29=Julie Anne Johnson – [242-B-3]
TTITLE30=Boll Weevil – [273-A-1]
TTITLE31=The Shreveport Jail – [250-B-1]
TTITLE32=Julie Anne Johnson – [250-B-2]
TTITLE33=Dance Calls – [252-A-1]
TTITLE34=Don’t You love Me No More [143-A]
TTITLE35=Henry Ford Blues [143-B]
EXTD=
EXTT0=
EXTT1=
EXTT2=
EXTT3=
EXTT4=
EXTT5=
EXTT6=
EXTT7=
EXTT8=
EXTT9=
EXTT10=
EXTT11=
EXTT12=
EXTT13=
EXTT14=
EXTT15=
EXTT16=
EXTT17=
EXTT18=
EXTT19=
EXTT20=
EXTT21=
EXTT22=
EXTT23=
EXTT24=
EXTT25=
EXTT26=
EXTT27=
EXTT28=
EXTT29=
EXTT30=
EXTT31=
EXTT32=
EXTT33=
EXTT34=
EXTT35=
PLAYORDER=
